smi 5 0
<part> smd 31
simple 31 1
*
-1
-0.025399999999999999 0 0
0.025400000000000002 0.05079999999999997 0
1 1007 9 0
0 0 0 0
-0.025399999999999999 0 0
0.025400000000000002 0.05079999999999997 0
_sim_empty
-1
0 0 0 0

0
0 1 2 2
0 0 0 0
0 0 0 0
0 0 0 0
1
3 4 5
5 0 9 0 200 0 1
3 
_sim_empty
-1
-0.025399999999999999 2.5670334730217448e-17 0
-0.025399999999999999 2.5670334730217448e-17 0
1 4 2
2 0 9 0 200 0 1
1 
_sim_empty
-1
0.025399999999999999 0 0
0.025399999999999999 0 0
2 5 10 3 1 
10 1 9 0 210 0 1 5 2
2 
_sim_empty
-1
1 0.5 -4.3368086899420177e-19 0 0
1e-08
1 1
0 1
4 4 0 1e-08
-0.025399999999999995 0 0
-0.0084666666666666657 0 0
0.0084666666666666657 0 0
0.025399999999999995 0 0
0 0 0 0 1 
1 1 1 
1 5 6 1 3 
6 1 9 0 210 0 1 2 5
1 
_sim_empty
-1
1 0.5 1.2143064331837643e-17 0.025400000000000002 0
1e-08
1 1
0 1
4 4 1 1e-08
0.025399999999999999 0 0 1
0.025400000000000002 0.050799999999999942 0 0.3333333333333337
-0.02539999999999995 0.05079999999999997 0 0.3333333333333337
-0.025399999999999999 2.5670334730217457e-17 0 1
0 0 0 0 1 
1 1 1 
1 6 14 1 0 2
2 6 1 1 10 2 1 2 6 14 0 0 1
2 10 2 0 6 1 0 14 2 9 0 203 0
1 1 
0

  1 2 
0

0
_sim_empty
-1
0 0 0 0 0 0
0
1 0
-0.0257048 0 0
1 0 0
0 1 0
0.0514096 0.025552399999999999 1
0 -1
2 8 1 2
14 0 14 1 1 3 8 0 303 0 1 
2 
0
0
_sim_empty
-1
0
0 -1
0 -1
0 -1
0 -1
0 -1
<part> auxmm 3
0
0
<part> attributes 10
AttDBVersion 10 8
0 1 0 18 19
1 2 3
0 
18 MeshRepresentation
0 
0 0 1
0
0
1 1
0 
0
1 2 7
0 
16 FixIntersections
0 
0 0 1
0
0
1 1
0 
1
1 2 4
0 
9 Smoothing
0 
0 0 1
0
0
1 1
0 
2
1 2 5
0 
13 SmoothingType
0 
0 0 1
0
0
1 1
0 
0
1 2 6
0 
12 Optimization
0 
0 0 1
0
0
1 1
0 
1
1 2 8
0 
16 EnforceGradation
0 
0 0 1
0
0
1 1
0 
0
1 3 9
0 
17 FaceRotationLimit
0 
0 0 1
0
0
2 1
0 
15
1 2 10
0 
12 DiscreteSnap
0 
0 0 1
0
0
1 1
0 
0
1 7 2
0 
13 SurfaceMesher
0 
0 0 1
0
8 3 4 5 6 7 8 9 10
1 2 15
0 
12 Optimization
0 
0 0 1
0
0
1 1
0 
1
1 2 12
0 
11 EnforceSize
0 
0 0 1
0
0
1 1
0 
0
1 2 13
0 
9 Smoothing
0 
0 0 1
0
0
1 1
0 
1
1 2 14
0 
13 SmoothingType
0 
0 0 1
0
0
1 1
0 
0
1 2 16
0 
8 ModifyBL
0 
0 0 1
0
0
1 1
0 
0
1 7 11
0 
12 VolumeMesher
0 
0 0 1
0
5 12 13 14 15 16
1 3 18
0 
8 MeshSize
8 Relative
0 0 1
0
0
2 -1
0 
3 0.1
1 10 17
1 *
6 simple
0 
0 0 1
0
0
1
4
61 file:///users/joshia5/Models/curved/disk_semi_geomsim_100.smd24 model.nonmanifold.simple6 # 1 0 0 1 2 19
0 
12 ElementOrder
0 
0 0 1
0
0
1 1
0 
2
3 1 1
5 case1
7 Meshing
0 
7 0 1
0
4 2 11 18 19
17
2 2
1
1
9 1  1 18
2
1
9 1  1 19
<index>
3
smd 8
auxmm 1325
attributes 1344
</index>
<header>
4
61 file:///users/joshia5/Models/curved/disk_semi_geomsim_100.smd24 model.nonmanifold.simple6 # 1 0 0 
1
14 FromVoxelModel0 
0
</header>
2456 2508                                                                                                                      
